# xmcd
#
# Track frame offsets: 
#        150
#        3579
#        10321
#        13534
#        20597
#        44780
#        53574
#        71561
#        98726
#        107719
#        116516
#        119809
#        129373
#        133971
#        149206
#        160745
#        180283
#
# Disc length: 2617 seconds
#
# Revision: 0
# Processed by: cddbd v1.5.2PL0 Copyright (c) Steve Scherf et al.
# Submitted via: ExactAudioCopy v1.0b3
#
DISCID=f00a3711
DTITLE=Anders Norstedt and Eddie Meduza - Jag och min far
DYEAR=2014
DGENRE=Comedy
TTITLE0=Slagsmål
TTITLE1=Idioternas Afton
TTITLE2=Byfånar
TTITLE3=Schizofreniklubben
TTITLE4=Radiohandeln
TTITLE5=Lanthandeln
TTITLE6=Hos Doktorn
TTITLE7=Familjemiddagen
TTITLE8=Fredriksbergsskolan
TTITLE9=We Are Vikings
TTITLE10=Mellantjöt
TTITLE11=Rockhead
TTITLE12=Masturberar
TTITLE13=Ronka
TTITLE14=Skattmasen (Norstedtz Feat Anders Norstedt)
TTITLE15=Min Stereo (Norstedtz Feat Anders Norstedt)
TTITLE16=Dä Va Ett Djävla Liv (Norstedtz Feat Anders Norstedt)
EXTD=
EXTT0=
EXTT1=
EXTT2=
EXTT3=
EXTT4=
EXTT5=
EXTT6=
EXTT7=
EXTT8=
EXTT9=
EXTT10=
EXTT11=
EXTT12=
EXTT13=
EXTT14=
EXTT15=
EXTT16=
PLAYORDER=
